<?xml version="1.0" encoding="UTF-8" standalone="no"?>
<!-- Created with Inkscape (http://www.inkscape.org/) -->

<svg
   xmlns:dc="http://purl.org/dc/elements/1.1/"
   xmlns:cc="http://creativecommons.org/ns#"
   xmlns:rdf="http://www.w3.org/1999/02/22-rdf-syntax-ns#"
   xmlns:svg="http://www.w3.org/2000/svg"
   xmlns="http://www.w3.org/2000/svg"
   xmlns:sodipodi="http://sodipodi.sourceforge.net/DTD/sodipodi-0.dtd"
   xmlns:inkscape="http://www.inkscape.org/namespaces/inkscape"
   width="978.98413"
   height="797.05707"
   id="svg5229"
   version="1.1"
   inkscape:version="0.48.4 r9939"
   sodipodi:docname="bra-unclipped.svg">
  <defs
     id="defs5231" />
  <sodipodi:namedview
     id="base"
     pagecolor="#ffffff"
     bordercolor="#666666"
     borderopacity="1.0"
     inkscape:pageopacity="0.0"
     inkscape:pageshadow="2"
     inkscape:zoom="0.7"
     inkscape:cx="370.78489"
     inkscape:cy="525.50525"
     inkscape:document-units="px"
     inkscape:current-layer="layer1"
     showgrid="false"
     fit-margin-top="0"
     fit-margin-left="0"
     fit-margin-right="0"
     fit-margin-bottom="0"
     inkscape:window-width="1600"
     inkscape:window-height="828"
     inkscape:window-x="524"
     inkscape:window-y="1425"
     inkscape:window-maximized="1" />
  <metadata
     id="metadata5234">
    <rdf:RDF>
      <cc:Work
         rdf:about="">
        <dc:format>image/svg+xml</dc:format>
        <dc:type
           rdf:resource="http://purl.org/dc/dcmitype/StillImage" />
        <dc:title />
      </cc:Work>
    </rdf:RDF>
  </metadata>
  <g
     inkscape:label="Layer 1"
     inkscape:groupmode="layer"
     id="layer1"
     transform="translate(114.49206,-133.91089)">
    <path
       style="fill:none;stroke:#000000;stroke-width:1px;stroke-linecap:butt;stroke-linejoin:miter;stroke-opacity:1"
       d="m -113.99206,697.54954 58.19099,205.5456 121.07481,6.56995 85.40936,16.89419 c 0,0 32.83985,0.44714 48.80535,-2.8157 16.28884,-3.32892 32.27276,-9.044 46.92822,-16.89418 19.91182,-10.66575 33.29678,-32.39958 54.43674,-40.35827 24.97163,-9.40122 53.10063,-7.10394 79.77797,-6.56995 17.96309,0.35956 36.81069,-0.0881 53.49817,6.56995 18.07444,7.21146 29.82249,25.44871 46.92822,34.72688 17.31664,9.39257 36.31455,15.671 55.3753,20.64837 17.76697,4.63952 36.10653,9.53962 54.43674,8.4471 24.32338,-1.44972 47.59003,-11.12006 70.39233,-19.7098 8.11878,-3.05838 15.01164,-9.30726 23.46411,-11.2628 42.3688,-9.80235 130.46045,-0.93856 130.46045,-0.93856 l 48.80536,-210.23843 -64.76095,-27.21837 -15.9556,-1.87713 -72.26946,-130.46045 -0.93856,-36.60401 -3.75426,0 -45.98966,-142.66179 -19.70985,-95.73357 -16.89416,-95.73357 -14.07846,-18.77129 -35.66545,10.32421 -4.69282,391.38136 -4.69283,10.32421 5.63139,0 -3.75426,10.32421 3.75426,6.56995 0.93856,66.63807 c 0,0 -93.85614,59.16167 -133.27614,97.6107 -9.90007,9.65622 -15.85974,22.78222 -25.34124,32.84975 -11.09785,11.78378 -36.60401,31.91119 -36.60401,31.91119 l -15.01703,-2.81569 c 0,0 -12.43958,-10.72612 -18.77129,-15.9556 C 290.50178,735.6086 185.40998,652.49844 185.40998,652.49844 l 4.69283,-508.7019 -36.60402,-9.38565 -22.52554,45.98966 -22.52555,138.90753 -54.43673,180.20437 -11.26277,3.75425 -6.56996,23.46411 -25.34123,72.26946 -39.41971,56.31387 -27.21837,6.56995 z"
       id="path4598"
       inkscape:connector-curvature="0"
       sodipodi:nodetypes="ccccssssssssssccccccccccccccccccssccscccccccccccc" />
    <path
       style="fill:none;stroke:#000000;stroke-width:1px;stroke-linecap:butt;stroke-linejoin:miter;stroke-opacity:1"
       d="m 71.84369,528.60794 30.97263,52.55961 47.86678,49.74391 5.63139,-4.69282 0,-36.60401 0,-27.21837 c 0,0 0.93856,-2.81569 0.93856,-6.56995 0,-3.75426 0,-15.01703 0,-15.01703 l 4.69282,-344.45314 -27.21836,134.21471 -40.35827,144.53892 z"
       id="path4600"
       inkscape:connector-curvature="0"
       sodipodi:nodetypes="ccccccsccccc" />
    <path
       style="fill:none;stroke:#000000;stroke-width:1px;stroke-linecap:butt;stroke-linejoin:miter;stroke-opacity:1"
       d="m 604.00971,613.07874 35.66545,-29.0955 44.11252,-58.19099 c 0,0 -54.99113,-189.80012 -76.02371,-286.26214 -2.36674,-10.85463 -5.63139,-32.84976 -5.63139,-32.84976 l -1.87713,333.19037 4.69282,13.1399 -2.81569,5.63138 z"
       id="path4602"
       inkscape:connector-curvature="0"
       sodipodi:nodetypes="cccsccccc" />
    <path
       style="fill:none;stroke:#000000;stroke-width:1px;stroke-linecap:butt;stroke-linejoin:miter;stroke-opacity:1"
       d="m -53.92394,662.82265 c 6.809433,40.61305 8.911471,82.38723 20.145731,121.93154 5.458342,19.21322 15.06641,37.7535 27.4746554,53.30844 14.8869766,18.66227 32.4770256,35.56928 51.7757196,49.53171 15.514611,11.22468 33.004616,19.98541 50.778206,26.95205 8.613088,3.37603 18.142908,3.62859 27.214358,5.44289"
       id="path4604"
       inkscape:connector-curvature="0"
       sodipodi:nodetypes="cssssc" />
    <path
       style="fill:none;stroke:#000000;stroke-width:1px;stroke-linecap:butt;stroke-linejoin:miter;stroke-opacity:1"
       d="m 686.60338,898.40232 c 0,0 38.26131,-28.59359 54.43673,-45.98966 11.59049,-12.46514 22.30709,-26.13065 30.03406,-41.29683 11.04875,-21.68602 16.75479,-45.80939 22.52555,-69.45377 4.51216,-18.48755 16.5285,-80.59957 16.5285,-80.59957"
       id="path4606"
       inkscape:connector-curvature="0"
       sodipodi:nodetypes="csssc" />
    <path
       style="fill:none;stroke:#000000;stroke-width:1px;stroke-linecap:butt;stroke-linejoin:miter;stroke-opacity:1"
       d="m 400.34123,777.32751 c 0,0 8.88218,20.67203 15.01703,30.03406 12.29485,18.76242 26.4045,36.72217 43.17397,51.62104 13.68755,12.16073 30.16552,20.82377 45.98965,30.03406 10.03724,5.84209 19.98498,12.19427 30.97263,15.9556 12.94606,4.43174 27.21837,6.56991 40.35827,7.50851 13.1399,0.9386 38.74658,-2.21681 57.25243,-7.50851 14.53826,-4.15718 28.43418,-10.82173 41.29683,-18.77129 14.38088,-8.88788 27.56441,-19.85896 39.4197,-31.91119 12.81519,-13.02808 25.00026,-27.15116 33.78832,-43.17396 8.13676,-14.83532 12.67164,-31.48192 16.89416,-47.86679 3.32436,-12.89968 3.98967,-26.35084 6.56995,-39.4197 4.35135,-22.03918 15.01703,-65.69951 15.01703,-65.69951"
       id="path4608"
       inkscape:connector-curvature="0"
       sodipodi:nodetypes="csssssssssssc" />
    <path
       style="fill:none;stroke:#000000;stroke-width:1px;stroke-linecap:butt;stroke-linejoin:miter;stroke-opacity:1"
       d="m -34.21409,654.37557 c 4.380601,28.50957 6.801795,57.35933 14.088498,85.35385 4.606771,17.69858 5.087935,36.88438 12.7046066,53.42784 8.8094186,19.13412 20.0602724,37.6035 34.0025124,53.31373 12.26147,13.81633 26.6482,26.19691 42.288858,35.89693 13.641941,8.46046 28.049393,16.44148 43.333505,21.1335 11.56848,3.55137 23.68803,7.18661 35.72367,6.88923 16.2627,-0.40183 33.13395,0.59537 48.69308,-3.91299 20.15996,-5.84148 41.04168,-12.49116 57.99081,-24.70401 19.25253,-13.87258 35.05463,-32.23271 50.50159,-50.21155 13.97108,-16.26106 26.56859,-33.65355 39.85289,-50.48033"
       id="path4610"
       inkscape:connector-curvature="0"
       sodipodi:nodetypes="csssssssssc" />
    <path
       style="fill:none;stroke:#000000;stroke-width:1px;stroke-linecap:butt;stroke-linejoin:miter;stroke-opacity:1"
       d="m 323.37895,852.41266 91.04075,-1.87713 -39.41971,-50.68247 -12.20133,-4.69283 z"
       id="path4612"
       inkscape:connector-curvature="0" />
    <path
       sodipodi:type="arc"
       style="fill:#000000;fill-opacity:0;stroke:#000000;stroke-width:1;stroke-miterlimit:4;stroke-opacity:1;stroke-dasharray:none;stroke-dashoffset:0"
       id="path4614"
       sodipodi:cx="477.72928"
       sodipodi:cy="575.35651"
       sodipodi:rx="9.385644"
       sodipodi:ry="9.385644"
       d="m 487.11492,575.35651 a 9.385644,9.385644 0 1 1 -18.77129,0 9.385644,9.385644 0 1 1 18.77129,0 z"
       transform="translate(-109.81444,232.07748)" />
    <path
       sodipodi:type="arc"
       style="fill:#000000;fill-opacity:0;stroke:#000000;stroke-width:1;stroke-miterlimit:4;stroke-opacity:1;stroke-dasharray:none;stroke-dashoffset:0"
       id="path4614-3"
       sodipodi:cx="477.72928"
       sodipodi:cy="575.35651"
       sodipodi:rx="9.385644"
       sodipodi:ry="9.385644"
       d="m 487.11492,575.35651 a 9.385644,9.385644 0 1 1 -18.77129,0 9.385644,9.385644 0 1 1 18.77129,0 z"
       transform="translate(-108.06018,254.89317)" />
  </g>
</svg>
