<?xml version="1.0" encoding="UTF-8" standalone="no"?>
<!-- Created with Inkscape (http://www.inkscape.org/) -->

<svg
   xmlns:dc="http://purl.org/dc/elements/1.1/"
   xmlns:cc="http://creativecommons.org/ns#"
   xmlns:rdf="http://www.w3.org/1999/02/22-rdf-syntax-ns#"
   xmlns:svg="http://www.w3.org/2000/svg"
   xmlns="http://www.w3.org/2000/svg"
   xmlns:sodipodi="http://sodipodi.sourceforge.net/DTD/sodipodi-0.dtd"
   xmlns:inkscape="http://www.inkscape.org/namespaces/inkscape"
   width="508.75983"
   height="254.60974"
   id="svg3002"
   version="1.1"
   inkscape:version="0.48.4 r9939"
   sodipodi:docname="panties.svg">
  <defs
     id="defs3004" />
  <sodipodi:namedview
     id="base"
     pagecolor="#ffffff"
     bordercolor="#666666"
     borderopacity="1.0"
     inkscape:pageopacity="0.0"
     inkscape:pageshadow="2"
     inkscape:zoom="0.7"
     inkscape:cx="292.87049"
     inkscape:cy="548.23787"
     inkscape:document-units="px"
     inkscape:current-layer="layer1"
     showgrid="false"
     inkscape:window-width="1278"
     inkscape:window-height="1407"
     inkscape:window-x="0"
     inkscape:window-y="0"
     inkscape:window-maximized="0"
     fit-margin-top="0"
     fit-margin-left="0"
     fit-margin-right="0"
     fit-margin-bottom="0" />
  <metadata
     id="metadata3007">
    <rdf:RDF>
      <cc:Work
         rdf:about="">
        <dc:format>image/svg+xml</dc:format>
        <dc:type
           rdf:resource="http://purl.org/dc/dcmitype/StillImage" />
      </cc:Work>
    </rdf:RDF>
  </metadata>
  <g
     inkscape:label="Layer 1"
     inkscape:groupmode="layer"
     id="layer1"
     transform="translate(-93.944187,-501.00619)">
    <path
       style="fill:#205590;fill-opacity:1;stroke:none"
       d="m 602.704,607.21903 c 0,0 -132.97704,132.3684 -215.55873,145.4471 C 376.7571,744.83955 367.5126,599.22304 367.5126,599.22304 z"
       id="path3017-5"
       inkscape:connector-curvature="0"
       sodipodi:nodetypes="cccc" />
    <path
       style="fill:#205590;fill-opacity:1;stroke:none"
       d="m 93.944187,618.50166 c 0,0 136.601563,121.13961 226.126233,133.1922 2.52538,-1.01015 -32.68202,-137.23281 -32.68202,-137.23281 z"
       id="path3017"
       inkscape:connector-curvature="0"
       sodipodi:nodetypes="cccc" />
    <path
       style="fill:#183f6f;fill-opacity:1;stroke:none;display:inline"
       d="M 118.72449,509.3426 94.906159,618.90694 c 0,0 56.568771,9.16496 113.137431,30.19698 56.56865,21.03202 111.84478,59.04379 111.84428,106.51201 -1.01187,-3.14768 13.96283,-18.18126 12.42283,-25.25764 -1.2719,-5.84435 22.4785,-2.76924 30.1703,-3.92953 5.7096,-0.86128 -1.43947,7.79494 25.36943,27.98749 0,0 -49.40183,-55.12244 214.38627,-146.82302 0,0.74432 -13.36591,-78.27619 -11.44398,-80.55302 6.57705,-7.79151 -10.16752,0.92894 -5.32724,-6.72682 5.53831,-8.75984 -4.25953,-1.26723 -3.81201,-6.2749 0.59929,-6.70606 -7.40337,-13.0323 -7.40337,-13.0323 0,0 -178.042,103.60975 -455.52561,8.33641 z"
       id="path2989"
       inkscape:connector-curvature="0"
       sodipodi:nodetypes="ccscssccssscc" />
    <path
       style="fill:#10090f;fill-opacity:1;fill-rule:evenodd;stroke:#000000;stroke-width:2.35383821;stroke-opacity:0"
       d="m 321.94531,578.91941 c 0.47646,-0.0443 0.9662,2e-5 1.4607,0 3.95605,9e-5 7.35216,1.38298 10.15187,4.22277 2.83006,2.80907 4.23597,6.19839 4.23603,10.14946 l 0,7.85287 13.51147,0 0,-7.85287 c -5e-5,-3.95107 1.4363,-7.34039 4.23603,-10.14946 2.83005,-2.83979 6.19573,-4.22268 10.15187,-4.22277 3.98641,9e-5 7.38254,1.38298 10.15185,4.22277 2.7996,2.83994 4.16292,6.28483 4.16301,10.29763 -9e-5,3.98205 -1.36341,7.42693 -4.16301,10.29761 -2.76931,2.87079 -6.11064,4.2969 -10.00578,4.29686 l -7.74172,0 0,13.70546 7.74172,0 c 3.89514,4e-5 7.23647,1.42613 10.00578,4.29686 2.7996,2.87075 4.16292,6.27242 4.16301,10.22352 -9e-5,4.04375 -1.36341,7.45776 -4.16301,10.29763 -2.76931,2.83989 -6.16544,4.29686 -10.15185,4.29686 -3.95614,0 -7.32182,-1.41377 -10.15187,-4.22278 -2.79973,-2.83986 -4.23608,-6.2724 -4.23603,-10.22354 l 0,-7.85286 -13.51147,0 0,7.85286 c -6e-5,3.95114 -1.40597,7.38368 -4.23603,10.22354 -2.79971,2.80901 -6.19582,4.22278 -10.15187,4.22278 -3.9561,0 -7.27918,-1.45697 -10.07882,-4.29686 -2.79969,-2.83987 -4.23604,-6.25388 -4.23604,-10.29763 0,-3.9511 1.43635,-7.35277 4.23604,-10.22352 2.79964,-2.87073 6.06794,-4.29682 9.93275,-4.29686 l 7.81475,0 0,-13.70546 -7.81475,0 c -3.86481,4e-5 -7.13311,-1.42607 -9.93275,-4.29686 -2.79969,-2.87068 -4.23604,-6.31556 -4.23604,-10.29761 0,-4.0128 1.43635,-7.45769 4.23604,-10.29763 2.4497,-2.48483 5.28303,-3.9121 8.61812,-4.22277 z m 1.4607,6.81569 c -2.06935,6e-5 -3.84046,0.78412 -5.33156,2.29659 -1.49115,1.48175 -2.19106,3.27828 -2.19104,5.40812 -2e-5,2.12996 0.69989,3.96969 2.19104,5.48218 1.4911,1.51258 3.30482,2.22256 5.40459,2.22252 l 7.59565,0 0,-7.7047 c -2e-5,-2.12984 -0.77299,-3.92637 -2.2641,-5.40812 -1.49114,-1.51247 -3.30483,-2.29653 -5.40458,-2.29659 z m 42.28727,0 c -2.09983,6e-5 -3.91353,0.78412 -5.40458,2.29659 -1.49122,1.48175 -2.19113,3.27828 -2.19107,5.40812 l 0,7.7047 7.59565,0 c 2.06927,4e-5 3.84035,-0.70994 5.33156,-2.22252 1.49106,-1.51249 2.26401,-3.35222 2.26407,-5.48218 -6e-5,-2.12984 -0.77301,-3.92637 -2.26407,-5.40812 -1.46079,-1.51247 -3.23187,-2.29653 -5.33156,-2.29659 z m -27.89937,22.29918 0,13.70546 13.51147,0 0,-13.70546 z m -14.31487,20.52115 c -2.09977,2e-5 -3.91349,0.78408 -5.40459,2.2966 -1.49115,1.51255 -2.19106,3.30909 -2.19104,5.40809 -2e-5,2.12993 0.69989,3.96967 2.19104,5.4822 1.4911,1.51254 3.30482,2.22252 5.40459,2.22252 2.06928,0 3.84041,-0.70998 5.33155,-2.22252 1.49111,-1.51253 2.26408,-3.30907 2.2641,-5.40811 l 0,-7.77878 z m 34.61859,0 0,7.77878 c -6e-5,2.09904 0.69985,3.89558 2.19107,5.40811 1.49105,1.51254 3.30475,2.22252 5.40458,2.22252 2.09969,0 3.87077,-0.70998 5.33156,-2.22252 1.49106,-1.51253 2.26401,-3.35227 2.26407,-5.4822 -6e-5,-2.099 -0.77301,-3.89554 -2.26407,-5.40809 -1.49121,-1.51252 -3.26229,-2.29658 -5.33156,-2.2966 z"
       id="path17"
       inkscape:connector-curvature="0"
       sodipodi:nodetypes="cccccccccccccccccccsccccccsssscccccsccccccccccccccccccccccccccsccscccccccsccccc" />
    <path
       style="fill:#000000;fill-opacity:0;stroke:#205590;stroke-width:2.57500005;stroke-linecap:butt;stroke-linejoin:miter;stroke-miterlimit:4;stroke-opacity:1;stroke-dasharray:7.725, 2.575;stroke-dashoffset:0"
       d="m 331.42857,726.6479 c 0,0 27.14286,-81.42857 -234.285713,-131.42857"
       id="path4395"
       inkscape:connector-curvature="0"
       sodipodi:nodetypes="cc" />
    <path
       style="fill:#000000;fill-opacity:0;stroke:#205590;stroke-width:2.57500005;stroke-linecap:butt;stroke-linejoin:miter;stroke-miterlimit:4;stroke-opacity:1;stroke-dasharray:7.725, 2.575;stroke-dashoffset:0"
       d="m 364.68696,730.36218 c 0,0 35.71428,-100 234.28571,-131.42857"
       id="path4395-1"
       inkscape:connector-curvature="0"
       sodipodi:nodetypes="cc" />
    <path
       style="fill:#000000;fill-opacity:0;stroke:#183f6f;stroke-width:2.48845577;stroke-linecap:butt;stroke-linejoin:miter;stroke-miterlimit:4;stroke-opacity:1;stroke-dasharray:7.46536737, 2.48845579;stroke-dashoffset:0"
       d="m 588.78488,597.17605 c 0,0 -165.99538,147.22846 -218.65797,131.51511"
       id="path4395-3"
       inkscape:connector-curvature="0"
       sodipodi:nodetypes="cc" />
    <path
       style="fill:#000000;fill-opacity:0;stroke:#183f6f;stroke-width:2.48845577;stroke-linecap:butt;stroke-linejoin:miter;stroke-miterlimit:4;stroke-opacity:1;stroke-dasharray:7.46536737, 2.48845579;stroke-dashoffset:0"
       d="m 97.81387,590.30339 c 0,0 165.99538,147.22846 218.65797,131.51511"
       id="path4395-3-0"
       inkscape:connector-curvature="0"
       sodipodi:nodetypes="cc" />
  </g>
</svg>
