<?xml version="1.0" encoding="UTF-8" standalone="no"?>
<!-- Created with Inkscape (http://www.inkscape.org/) -->

<svg
   xmlns:dc="http://purl.org/dc/elements/1.1/"
   xmlns:cc="http://creativecommons.org/ns#"
   xmlns:rdf="http://www.w3.org/1999/02/22-rdf-syntax-ns#"
   xmlns:svg="http://www.w3.org/2000/svg"
   xmlns="http://www.w3.org/2000/svg"
   xmlns:sodipodi="http://sodipodi.sourceforge.net/DTD/sodipodi-0.dtd"
   xmlns:inkscape="http://www.inkscape.org/namespaces/inkscape"
   width="516.71429"
   height="516.71429"
   id="svg3002"
   version="1.1"
   inkscape:version="0.48.4 r9939"
   sodipodi:docname="logo.svg"
   inkscape:export-filename="/home/befi/devel/undoware.net/contents/raster/icon-144.png"
   inkscape:export-xdpi="24.997223"
   inkscape:export-ydpi="24.997223">
  <defs
     id="defs3004">
    <clipPath
       clipPathUnits="userSpaceOnUse"
       id="clipPath4772">
      <rect
         style="fill:none;stroke:none"
         id="rect4774"
         width="517.14288"
         height="517.14288"
         x="92.301323"
         y="347.25879" />
    </clipPath>
    <clipPath
       clipPathUnits="userSpaceOnUse"
       id="clipPath4861">
      <rect
         style="fill:none;stroke:none"
         id="rect4863"
         width="517.14288"
         height="517.14288"
         x="73.729897"
         y="369.54453" />
    </clipPath>
  </defs>
  <sodipodi:namedview
     id="base"
     pagecolor="#ffffff"
     bordercolor="#666666"
     borderopacity="1.0"
     inkscape:pageopacity="0.0"
     inkscape:pageshadow="2"
     inkscape:zoom="0.98994949"
     inkscape:cx="455.50723"
     inkscape:cy="231.11784"
     inkscape:document-units="px"
     inkscape:current-layer="layer1"
     showgrid="false"
     inkscape:window-width="1600"
     inkscape:window-height="828"
     inkscape:window-x="479"
     inkscape:window-y="1425"
     inkscape:window-maximized="1"
     fit-margin-top="0"
     fit-margin-left="0"
     fit-margin-right="0"
     fit-margin-bottom="0" />
  <metadata
     id="metadata3007">
    <rdf:RDF>
      <cc:Work
         rdf:about="">
        <dc:format>image/svg+xml</dc:format>
        <dc:type
           rdf:resource="http://purl.org/dc/dcmitype/StillImage" />
        <dc:title></dc:title>
      </cc:Work>
    </rdf:RDF>
  </metadata>
  <g
     inkscape:groupmode="layer"
     id="layer4"
     inkscape:label="bg" />
  <g
     inkscape:label="Layer 1"
     inkscape:groupmode="layer"
     id="layer1"
     transform="translate(-92.301324,-349.97308)">
    <path
       style="fill:#205590;fill-opacity:1;fill-rule:evenodd;stroke:#000000;stroke-width:12.79737091;stroke-opacity:0"
       d="M 140.625 66.6875 C 139.96909 66.698782 139.30386 66.721042 138.65625 66.78125 C 120.524 68.47031 105.13103 76.24045 91.8125 89.75 C 76.59112 105.19021 68.78125 123.93316 68.78125 145.75 C 68.78125 167.39962 76.59112 186.11142 91.8125 201.71875 C 107.03361 217.3267 124.80024 225.09396 145.8125 225.09375 L 164.65625 225.09375 L 164.65625 224.78125 L 263.03125 224.78125 L 196.4375 299.53125 L 188.28125 299.53125 L 188.28125 299.59375 L 145.8125 299.59375 C 124.80024 299.59396 107.03361 307.36114 91.8125 322.96875 C 76.59112 338.57649 68.78125 357.04989 68.78125 378.53125 C 68.78125 400.51635 76.59112 419.09142 91.8125 434.53125 C 107.03361 449.97118 125.08518 457.875 146.59375 457.875 C 168.10204 457.875 186.55977 450.20956 201.78125 434.9375 C 217.16776 419.49773 224.81216 400.82533 224.8125 379.34375 L 224.8125 336.65625 L 298.28125 336.65625 L 298.28125 379.34375 C 298.28097 400.82533 306.09089 419.49773 321.3125 434.9375 C 336.69892 450.20956 354.99121 457.875 376.5 457.875 C 398.17337 457.875 416.63128 449.97118 431.6875 434.53125 C 446.90838 419.09142 454.34325 400.51635 454.34375 378.53125 C 454.34325 357.04989 446.90838 338.57649 431.6875 322.96875 C 416.63128 307.36114 398.48965 299.59396 377.3125 299.59375 L 335.21875 299.59375 L 335.21875 299.53125 L 298.28125 299.53125 L 298.28125 299.59375 L 253.53125 299.59375 L 320.28125 224.78125 L 347.5 224.78125 L 347.5 225.09375 L 377.3125 225.09375 C 398.48965 225.09396 416.63128 217.3267 431.6875 201.71875 C 446.90838 186.11142 454.34325 167.39962 454.34375 145.75 C 454.34325 123.93316 446.90838 105.19021 431.6875 89.75 C 416.63128 74.3106 398.17337 66.78175 376.5 66.78125 C 354.99121 66.78175 336.69892 74.3106 321.3125 89.75 C 306.09089 105.02237 298.28097 123.4563 298.28125 144.9375 L 298.28125 187.625 L 224.8125 187.625 L 224.8125 144.9375 C 224.81216 123.4563 217.16776 105.02237 201.78125 89.75 C 186.55977 74.3106 168.10204 66.78175 146.59375 66.78125 C 144.57738 66.781318 142.59272 66.653654 140.625 66.6875 z M 146.59375 103.84375 C 158.00969 103.84409 167.86169 108.12071 175.96875 116.34375 C 184.07562 124.39972 188.28116 134.17044 188.28125 145.75 L 188.28125 187.625 L 147 187.625 C 135.58393 187.62521 125.73181 183.75484 117.625 175.53125 C 109.51787 167.30812 105.68741 157.33018 105.6875 145.75 C 105.68741 134.17044 109.51787 124.39972 117.625 116.34375 C 125.73181 108.12071 135.34309 103.84409 146.59375 103.84375 z M 376.5 103.84375 C 387.91564 103.84409 397.55795 108.12071 405.5 116.34375 C 413.60659 124.39972 417.81219 134.17044 417.8125 145.75 C 417.81219 157.33018 413.60659 167.30812 405.5 175.53125 C 397.39256 183.75484 387.75022 187.62521 376.5 187.625 L 335.21875 187.625 L 335.21875 145.75 C 335.21841 134.17044 339.01754 124.39972 347.125 116.34375 C 355.23157 108.12071 365.08362 103.84409 376.5 103.84375 z M 147 336.65625 L 188.28125 336.65625 L 188.28125 378.9375 C 188.28116 390.34956 184.07562 400.12041 175.96875 408.34375 C 167.86169 416.56716 158.25028 420.4375 147 420.4375 C 135.58393 420.4375 125.73181 416.56716 117.625 408.34375 C 109.51787 400.12041 105.68741 390.11127 105.6875 378.53125 C 105.68741 367.1194 109.51787 357.34844 117.625 349.125 C 125.73181 340.90172 135.58393 336.65634 147 336.65625 z M 335.21875 336.65625 L 376.5 336.65625 C 387.75022 336.65634 397.39256 340.90172 405.5 349.125 C 413.60659 357.34844 417.81219 367.1194 417.8125 378.53125 C 417.81219 390.11127 413.60659 400.12041 405.5 408.34375 C 397.55795 416.56716 387.91564 420.4375 376.5 420.4375 C 365.08362 420.4375 355.23157 416.56716 347.125 408.34375 C 339.01754 400.12041 335.21841 390.34956 335.21875 378.9375 L 335.21875 336.65625 z "
       transform="translate(92.301324,349.97308)"
       id="path17" />
  </g>
</svg>
