<?xml version="1.0" encoding="UTF-8" standalone="no"?>
<!-- Generator: Adobe Illustrator 16.0.1, SVG Export Plug-In . SVG Version: 6.00 Build 0)  -->

<svg
   xmlns:dc="http://purl.org/dc/elements/1.1/"
   xmlns:cc="http://creativecommons.org/ns#"
   xmlns:rdf="http://www.w3.org/1999/02/22-rdf-syntax-ns#"
   xmlns:svg="http://www.w3.org/2000/svg"
   xmlns="http://www.w3.org/2000/svg"
   xmlns:sodipodi="http://sodipodi.sourceforge.net/DTD/sodipodi-0.dtd"
   xmlns:inkscape="http://www.inkscape.org/namespaces/inkscape"
   version="1.1"
   x="0px"
   y="0px"
   width="171.9696"
   height="320.578"
   viewBox="0 0 171.9696 320.578"
   enable-background="new 0 0 358.716 319.578"
   xml:space="preserve"
   id="svg2"
   inkscape:version="0.48.4 r9939"
   sodipodi:docname="zebra.svg"><metadata
     id="metadata425"><rdf:RDF><cc:Work
         rdf:about=""><dc:format>image/svg+xml</dc:format><dc:type
           rdf:resource="http://purl.org/dc/dcmitype/StillImage" /><dc:title /></cc:Work></rdf:RDF></metadata><defs
     id="defs423" /><sodipodi:namedview
     pagecolor="#ffffff"
     bordercolor="#666666"
     borderopacity="1"
     objecttolerance="10"
     gridtolerance="10"
     guidetolerance="10"
     inkscape:pageopacity="0"
     inkscape:pageshadow="2"
     inkscape:window-width="1600"
     inkscape:window-height="828"
     id="namedview421"
     showgrid="false"
     inkscape:zoom="1.4769477"
     inkscape:cx="-119.85514"
     inkscape:cy="224.23716"
     inkscape:window-x="479"
     inkscape:window-y="1425"
     inkscape:window-maximized="1"
     inkscape:current-layer="svg2"
     fit-margin-top="0"
     fit-margin-left="0"
     fit-margin-right="0"
     fit-margin-bottom="0" /><path
     style="fill:#133255;fill-opacity:1;fill-rule:evenodd;stroke:#000000;stroke-width:1;stroke-opacity:0"
     d="M 146.09375 0.5 C 146.09375 0.5 141.30125 21.762 135.65625 22.75 C 133.32525 22.75 134.75975 24.53 132.34375 22.75 C 129.92775 20.97 134.99475 12.1195 127.21875 5.3125 C 119.44275 -1.4945003 114.8555 9.2745 114.5625 11.1875 C 113.4955 18.1605 117.30225 24.844 123.78125 27.75 C 126.53925 28.988 130.25825 34.2945 127.40625 34.1875 C 124.55425 34.0805 123.71475 29.37925 121.71875 29.53125 C 122.08942 32.599703 120.72915 41.098101 119.15625 38.4375 C 114.58232 80.248943 163.4833 152.99647 164.1875 56.9375 C 164.1875 56.9375 168.99175 45.5315 164.96875 40.4375 C 160.94575 35.3435 158.3115 28.26325 163.4375 25.03125 C 170.4765 20.59325 173.51725 11.273 170.03125 5.75 C 166.54525 0.22699985 156.74775 4.03175 155.34375 8.59375 C 153.93975 13.15575 151.4735 20.939 151.0625 22.375 C 149.8985 22.103 146.09375 0.5 146.09375 0.5 z M 134.1875 37.625 C 134.23938 37.6196 134.29125 37.625978 134.34375 37.625 C 134.5014 37.62202 134.65095 37.625006 134.8125 37.625 C 136.53569 37.625044 138.0305 38.291215 139.25 39.65625 C 140.48273 41.006516 141.09373 42.632045 141.09375 44.53125 L 141.09375 48.3125 L 146.96875 48.3125 L 146.96875 44.53125 C 146.96873 42.632045 147.59298 41.006516 148.8125 39.65625 C 150.04522 38.291215 151.49552 37.625044 153.21875 37.625 C 154.95516 37.625044 156.44999 38.291215 157.65625 39.65625 C 158.87571 41.021355 159.46872 42.664875 159.46875 44.59375 C 159.46872 46.507843 158.87571 48.182618 157.65625 49.5625 C 156.44999 50.942433 155.00916 51.62502 153.3125 51.625 L 150.90625 51.625 L 150.90625 51.59375 L 148.71875 51.59375 L 143.375 58.21875 L 146.96875 58.21875 L 146.96875 58.1875 L 149.9375 58.1875 L 149.9375 58.21875 L 153.3125 58.21875 C 155.00916 58.218769 156.44999 58.901347 157.65625 60.28125 C 158.87571 61.661168 159.46872 63.288284 159.46875 65.1875 C 159.46872 67.131257 158.87571 68.75993 157.65625 70.125 C 156.44999 71.490081 154.95516 72.1875 153.21875 72.1875 C 151.49552 72.1875 150.04522 71.506488 148.8125 70.15625 C 147.59298 68.791185 146.96873 67.149236 146.96875 65.25 L 146.96875 61.46875 L 141.09375 61.46875 L 141.09375 65.25 C 141.09373 67.149236 140.48273 68.791185 139.25 70.15625 C 138.0305 71.506488 136.53569 72.1875 134.8125 72.1875 C 133.08929 72.1875 131.65698 71.490081 130.4375 70.125 C 129.218 68.75993 128.59375 67.131257 128.59375 65.1875 C 128.59375 63.288284 129.218 61.661168 130.4375 60.28125 C 131.65698 58.901347 133.06655 58.218769 134.75 58.21875 L 138.15625 58.21875 L 138.15625 58.1875 L 138.8125 58.1875 L 144.15625 51.59375 L 136.25 51.59375 L 136.25 51.625 L 134.75 51.625 C 133.06655 51.62502 131.65698 50.942433 130.4375 49.5625 C 129.218 48.182617 128.59375 46.507843 128.59375 44.59375 C 128.59375 42.664875 129.218 41.021355 130.4375 39.65625 C 131.50455 38.461838 132.73479 37.774334 134.1875 37.625 z M 134.8125 40.90625 C 133.91113 40.90628 133.14949 41.272982 132.5 42 C 131.85048 42.712247 131.53125 43.569977 131.53125 44.59375 C 131.53125 45.61758 131.85048 46.522971 132.5 47.25 C 133.14949 47.977065 133.92912 48.31252 134.84375 48.3125 L 138.15625 48.3125 L 138.15625 44.59375 C 138.15625 43.569977 137.80575 42.712247 137.15625 42 C 136.50673 41.272982 135.72712 40.90628 134.8125 40.90625 z M 153.21875 40.90625 C 152.3041 40.90628 151.52448 41.272982 150.875 42 C 150.22545 42.712247 149.93746 43.569977 149.9375 44.59375 L 149.9375 48.3125 L 153.21875 48.3125 C 154.12009 48.31252 154.91295 47.977065 155.5625 47.25 C 156.21198 46.522971 156.53123 45.61758 156.53125 44.59375 C 156.53123 43.569977 156.21198 42.712247 155.5625 42 C 154.92621 41.272982 154.13334 40.90628 153.21875 40.90625 z M 134.84375 61.46875 C 133.92912 61.468756 133.14949 61.866711 132.5 62.59375 C 131.85048 63.320804 131.53125 64.178553 131.53125 65.1875 C 131.53125 66.211319 131.85048 67.085456 132.5 67.8125 C 133.14949 68.53955 133.92912 68.875 134.84375 68.875 C 135.74509 68.875 136.50673 68.53955 137.15625 67.8125 C 137.80575 67.085456 138.15625 66.227716 138.15625 65.21875 L 138.15625 61.46875 L 134.84375 61.46875 z M 149.9375 61.46875 L 149.9375 65.21875 C 149.93746 66.227716 150.22545 67.085456 150.875 67.8125 C 151.52448 68.53955 152.3041 68.875 153.21875 68.875 C 154.13334 68.875 154.92621 68.53955 155.5625 67.8125 C 156.21198 67.085456 156.53123 66.211319 156.53125 65.1875 C 156.53123 64.178553 156.21198 63.320804 155.5625 62.59375 C 154.91295 61.866711 154.12009 61.468756 153.21875 61.46875 L 149.9375 61.46875 z "
     id="path17"
     transform="translate(-1.4602987e-6,0)" /><path
     style="fill:#133255;fill-opacity:1;fill-rule:evenodd;stroke:#000000;stroke-opacity:0"
     inkscape:connector-curvature="0"
     id="path19"
     d="m 82.418993,102.36 c 4.266,16.135 12.74,30.019 21.688997,43.746 1.097,1.68 2.059,3.447 3.122,5.15 1.744,2.791 1.566,5.564 0.575,8.643 -0.743,2.311 -0.597,4.898 -0.913,7.355 -0.327,2.539 -0.733,1.068 -1.646,3.594 2.067,-14.148 -5.207,-21.02 -12.269997,-31.818 -8.225,-12.572 -15.279,-30.382 -19.474,-44.63 -1.399,-4.754 -9.146,-11.83 -9.448,-16.694 -0.302,-4.864 3.099,-6.735 5.898,-6.081 2.799,0.654 10.855,24.642 12.467,30.735 z"
     clip-rule="evenodd" /><path
     style="fill:#133255;fill-opacity:1;fill-rule:evenodd;stroke:#000000;stroke-opacity:0"
     inkscape:connector-curvature="0"
     id="path21"
     d="m 75.390993,61.028 c 4.112,-2.75 14.566,25.734 20.217,38.723 5.202997,11.958 11.011997,23.671 16.973997,35.274 2.875,5.598 3.11,10.662 0.283,15.211 -1.825,-2.848 -3.503,-6.189 -5.841,-8.975 -6.535,-7.787 -11.628997,-16.416 -15.464997,-25.759 -3.805,-9.271 -10.945,-28.005 -10.945,-28.005 0,0 -9.335,-23.719 -5.223,-26.469 z"
     clip-rule="evenodd" /><path
     style="fill:#133255;fill-opacity:1;fill-rule:evenodd;stroke:#000000;stroke-opacity:0"
     inkscape:connector-curvature="0"
     id="path23"
     d="m 154.46799,80.462 c 14.28451,-0.918352 6.69007,12.849375 1.895,29.065 -1.429,4.175 -4.911,5.341 -8.53,5.077 -32.23723,-47.19374 -12.92077,-28.441841 -10.682,-33.314 0.512,-0.573 2.403,0.087 3.922,0.203 z"
     clip-rule="evenodd"
     sodipodi:nodetypes="cccccc" /><path
     style="fill:#133255;fill-opacity:1;fill-rule:evenodd;stroke:#000000;stroke-opacity:0"
     inkscape:connector-curvature="0"
     id="path25"
     d="m 85.111993,57.116 c 2.391,-1.334 8.438,4.519 10.852,7.633 2.666,3.441 5.358997,6.931 7.459997,10.721 2.351,4.244 4.708,8.681 5.904,13.331 3.162,12.292 8.875,23.255 16.394,33.274 2.592,3.455 2.277,5.773 -0.822,8.533 -0.372,-0.029 -0.617,-0.037 -0.857,-0.07 -15.987,-2.219 -18.903,-15.833 -23.845,-27.559 -3.453997,-8.196 -6.500997,-16.564 -9.717997,-24.861 l -5.368,-21.002 z"
     clip-rule="evenodd" /><path
     style="fill:#133255;fill-opacity:1;fill-rule:evenodd;stroke:#000000;stroke-opacity:0"
     inkscape:connector-curvature="0"
     id="path27"
     d="M 5.2289931,202.504 C 13.254993,190.203 14.332993,176.475 13.931993,162.287 16.503993,103.528 -1.9520069,91.72 0.77599315,89.249 3.5039931,86.778 12.444993,87.879 14.737993,87.775 c 2.293,-0.104 5.703,4.425 6.173,7.369 2.357,14.739 0.636,52.141 0.583,56.031 -0.171,12.637 -1.402,25.246 -5.067,37.262 -2.26,7.406 -6.8519999,14.143 -10.7979999,20.947 -0.663,1.143 -2.107,-4.263 -0.4,-6.88 z"
     clip-rule="evenodd" /><path
     style="fill:#133255;fill-opacity:1;fill-rule:evenodd;stroke:#000000;stroke-opacity:0"
     inkscape:connector-curvature="0"
     id="path29"
     d="m 6.1409931,89.941 c 2.751,3.089 5.2699999,5.917 8.2459999,9.26 0.176,-6.476 -3.957,-10.9 -8.2459999,-9.26 z"
     clip-rule="evenodd" /><path
     style="fill:#133255;fill-opacity:1;fill-rule:evenodd;stroke:#000000;stroke-opacity:0"
     inkscape:connector-curvature="0"
     id="path31"
     d="m 75.390993,175.898 c -7.462,1.607 -21,11.156 -20.595,12.928 3.715,-1.852 7.079,-3.795 10.642,-5.254 9.291,-3.809 14.435,-3.346 21.521,3.59 -0.119,3.082 -2.202,1.576 -3.539,1.418 -3.721,-0.439 -7.438,-1.535 -11.125,-1.414 -3.249,0.105 -6.559,1.23 -9.652,2.402 -3.298,1.25 -14.285,5.306 -17.64,6.21 -1.352,0.365 2.12,-10.7 2.206,-13.786 0.044,-1.551 15.991,-29.191 20.009,-36.117 1.88,-3.242 2.057,-7.443 3.228,-11.139 0.404,-1.273 5.85,10.314 -0.555,17.268 -2.635,2.863 -9.091,9.447 -9.057,10.686 3.932,-2.33 8.039,-4.41 11.749,-7.051 4.591,-3.268 5.681,-3.988 9.931,-0.469 6.518,5.396 11.807,11.838 10.361,21.271 -0.165,1.074 -3.587,-4.617 -5.152,-8.24 -2.027,-4.693 -6.188,-7.695 -11.088,-6.996 -8.438,1.205 -20.576,16.637 -19.495,15.844 3.511,-2.58 6.738,-5.719 10.575,-7.65 9.341,-4.701 17.43,-0.693 19.877,9.373 0.334,1.376 -5.496,-4.319 -12.201,-2.874 z"
     clip-rule="evenodd" /><path
     style="fill:#133255;fill-opacity:1;fill-rule:evenodd;stroke:#000000;stroke-opacity:0"
     inkscape:connector-curvature="0"
     id="path33"
     d="m 19.840993,205.6 c -3.088,0.929 1.169,-7.422 2.782,-10.613 9.395,-18.588 17.872,-37.467 20.711,-58.387 1.283,-9.449 3.064,-18.832 4.209,-28.292 0.9,-7.446 -2.183,-14.026 -5.651,-20.39 -1.06,-1.944 -0.708,-3.319 0.111,-3.814 0.819,-0.495 14.624,14.74 12.966,27.239 -1.107,8.346 -1.81,16.816 -3.826,24.951 -1.707,6.887 -4.896,13.432 -7.685,20.02 -5.482,12.955 -11.207,25.809 -16.665,38.773 -0.936,2.224 -3.864,9.584 -6.952,10.513 z"
     clip-rule="evenodd" /><path
     style="fill:#133255;fill-opacity:1;fill-rule:evenodd;stroke:#000000;stroke-opacity:0"
     inkscape:connector-curvature="0"
     id="path35"
     d="m 79.022993,320.078 c -13.191,0 -8.874,0 -22.388,0 0.087,-0.395 1.251,-9.779 2.026,-11.73 1.201,-3.02 -0.047,-5.832 -2.23,-6.898 -6.248,-3.051 10.896,-15.361 11.092,-14.254 1.227,6.896 1.268,12.523 6.695,17.955 l 4.805,14.927 z"
     clip-rule="evenodd" /><path
     style="fill:#133255;fill-opacity:1;fill-rule:evenodd;stroke:#000000;stroke-opacity:0"
     inkscape:connector-curvature="0"
     id="path37"
     d="m 105.08699,54.531 c 3.167,-0.002 32.014,58.333 36.59,60.041 4.576,1.708 -4.779,6.875 -9.982,3.207 -7.414,-5.229 -10.643,-13.12 -14.067,-20.959 -4.007,-9.171 -9.046,-18.033 -11.815,-27.559 -0.001,-10e-4 -3.892,-14.728 -0.726,-14.73 z"
     clip-rule="evenodd" /><path
     style="fill:#133255;fill-opacity:1;fill-rule:evenodd;stroke:#000000;stroke-opacity:0"
     inkscape:connector-curvature="0"
     id="path39"
     d="m 29.193993,88.356 c 1.013,0.335 -0.661,-3.162 0.669,-3.637 1.33,-0.475 5.734,-0.183 6.773,4.021 3.469,14.033 3.099,28.146 0.833,42.284 -1.194,7.449 -2.854,14.842 -3.698,22.328 -1.077,9.555 -9.229,31.897 -10.748,31.787 -1.519,-0.11 3.41,-26.031 4.619,-36.504 1.138,-9.859 2.786,-19.773 2.623,-29.638 -0.141,-8.541 -2.232,-17.107 -4.061,-25.532 -0.52,-2.394 -7.143,-5.521 -4.796,-6.479 2.347,-0.958 6.773,1.035 7.786,1.37 z"
     clip-rule="evenodd" /><path
     style="fill:#133255;fill-opacity:1;fill-rule:evenodd;stroke:#000000;stroke-opacity:0"
     inkscape:connector-curvature="0"
     id="path41"
     d="m 38.058993,198.613 c -0.905,-0.504 -0.949,-3.32 -0.704,-5 1.966,-13.438 6.996,-25.877 12.565,-38.152 5.986,-13.189 11.738,-26.646 12.002,-41.31 0.181,-10.014 -2.979,-19.839 -10.169,-27.873 -1.782,-1.992 -3.603,-3.307 -1,-5.438 2.603,-2.131 16.142,20.077 17.527,29.455 2.253,15.238 -2.627,28.076 -10.694,40.478 -7.204,11.074 -12.956,22.943 -16.515,35.75 -1.177,4.239 -1.506,12.928 -3.012,12.09 z"
     clip-rule="evenodd" /><path
     style="fill:#133255;fill-opacity:1;fill-rule:evenodd;stroke:#000000;stroke-opacity:0"
     inkscape:connector-curvature="0"
     id="path43"
     d="m 57.717993,78.433 c 3.035,-0.655 11.718,11.483 14.324,18.532 3.298,8.918 4.836,18.491 8.189,27.381 2.903,7.699 7.058,14.965 11.072,22.193 3.729,6.715 8.005,13.174 8.922997,20.996 0.332,2.832 -0.259997,5.773 -0.429997,8.666 -0.338,-0.02 -0.675,-0.039 -1.012,-0.057 -0.131,-0.459 -0.368,-0.916 -0.375,-1.375 -0.16,-11.229 -6.893,-19.01 -13.805,-26.781 -1.782,-2.004 -3.128,-4.51 -4.225,-6.984 -1.779,-4.016 -3.289,-8.16 -4.716,-12.318 -0.892,-2.598 -1.878,-5.291 -2.04,-7.987 -0.435,-7.2 -3.365,-17.261 -7.31,-25.357 -4.626,-9.503 -10.233,-16.555 -8.595,-16.909 z"
     clip-rule="evenodd" /><path
     style="fill:#133255;fill-opacity:1;fill-rule:evenodd;stroke:#000000;stroke-opacity:0"
     inkscape:connector-curvature="0"
     id="path47"
     d="m 57.844993,249.59 c -1.366,-0.039 -3.217,-0.537 -4.071,-1.049 -0.854,-0.512 -0.08,-3.501 0.033,-5.84 0.113,-2.339 3.236,-1.586 4.91,-2.234 4.775,-1.85 14.086,-1.551 13.895,1.506 -0.191,3.057 -11.707,1.38 -11.449,3.135 0.258,1.755 10.223,-0.537 10.49,1.775 0.267,2.312 -1.399,1.947 -1.922,2.676 l -11.886,0.031 z"
     clip-rule="evenodd" /><path
     style="fill:#133255;fill-opacity:1;fill-rule:evenodd;stroke:#000000;stroke-opacity:0"
     inkscape:connector-curvature="0"
     id="path49"
     d="m 65.035993,218.653 c 6.289,0.717 12.208,1.681 11.767,2.812 -1.405,0.484 -2.947,0.016 -4.489,0.547 l 0.119,-0.1 c -6.16,3.828 -17.474,1.032 -17.701,-0.176 -0.001,0 4.015,-3.799 10.304,-3.083 z"
     clip-rule="evenodd" /><path
     style="fill:#133255;fill-opacity:1;fill-rule:evenodd;stroke:#000000;stroke-opacity:0"
     inkscape:connector-curvature="0"
     id="path51"
     d="m 54.532993,232.051 c -1.446,-2.188 7.284,-1.254 9.811,-0.672 3.146,0.725 6.185,1.908 9.492,2.965 -0.257,1.492 -0.559,3.248 -0.913,5.311 -1.236,-0.518 -2.301,-0.824 -3.223,-1.373 -3.547,-2.109 -6.989,-0.734 -10.52,0.055 -1.475,0.332 -3.202,1.303 -4.647,-0.002 -1.445,-1.305 0.56,-2.174 2.428,-2.518 2.089,-0.385 4.122,-1.078 7.185,-1.91 -3.829,-0.188 -8.167,0.332 -9.613,-1.856 z"
     clip-rule="evenodd" /><path
     style="fill:#133255;fill-opacity:1;fill-rule:evenodd;stroke:#000000;stroke-opacity:0"
     inkscape:connector-curvature="0"
     id="path53"
     d="m 83.997993,200.748 c 0.506,2.53 -1.572,4.248 -5.401,3.062 -7.588,-2.348 -21.137,-2.524 -21.374,-4.115 -0.531,-3.554 25.883,-3.41 26.775,1.053 z"
     clip-rule="evenodd" /><path
     style="fill:#133255;fill-opacity:1;fill-rule:evenodd;stroke:#000000;stroke-opacity:0"
     inkscape:connector-curvature="0"
     id="path55"
     d="m 61.556993,193.061 c -0.679,-1.032 6.156,-2.92 9.213,-2.877 4.432,0.064 12.228,1.558 13.23,2.514 1.002,0.956 -0.297,4.332 -1.172,4.205 -1.83,-0.266 -3.541,-1.43 -5.365,-1.627 -4.158,-0.447 -8.354,-0.547 -12.535,-0.762 -1.019,-0.053 -2.692,-0.421 -3.371,-1.453 z"
     clip-rule="evenodd" /><path
     style="fill:#133255;fill-opacity:1;fill-rule:evenodd;stroke:#000000;stroke-opacity:0"
     inkscape:connector-curvature="0"
     id="path57"
     d="m 74.896993,228.828 c -0.02,3.73 -2.148,3.488 -4.622,2.846 -5.397,-1.402 -15.703,-2.622 -16.695,-4.217 -0.992,-1.595 3.136,-2.883 5.63,-2.629 2.732,0.277 5.457,0.834 8.121,1.512 2.48,0.635 4.879,1.59 7.566,2.488 z"
     clip-rule="evenodd" /><path
     style="fill:#133255;fill-opacity:1;fill-rule:evenodd;stroke:#000000;stroke-opacity:0"
     inkscape:connector-curvature="0"
     id="path59"
     d="m 80.108993,209.475 c -1.217,1.232 -2.344,3.412 -3.664,3.535 -6.07,0.57 -12.195,0.693 -18.299,0.66 -1.184,-0.006 -2.83,0.834 -3.539,-2.186 -0.48,-2.044 -1.679,-0.922 8.553,-0.195 3.227,0.229 6.499,0.326 9.709,0.023 1.278,-0.119 6.949,-2.158 7.24,-1.837 z"
     clip-rule="evenodd" /><path
     style="fill:#133255;fill-opacity:1;fill-rule:evenodd;stroke:#000000;stroke-opacity:0"
     inkscape:connector-curvature="0"
     id="path61"
     d="m 68.978993,208.693 c -5.913,-0.929 -12.105,2.016 -14.233,-2.331 -0.713,-1.456 7.399,-3.968 10.728,-3.286 3.66,0.752 14.729,3.053 12.803,4.48 -1.492,1.105 -6.245,1.616 -9.298,1.137 z"
     clip-rule="evenodd" /><path
     style="fill:#133255;fill-opacity:1;fill-rule:evenodd;stroke:#000000;stroke-opacity:0"
     inkscape:connector-curvature="0"
     id="path63"
     d="m 68.250993,257.205 c -4.299,-0.309 -8.335,-0.598 -12.836,-0.92 -1.475,-2.768 0.469,-3.797 3.368,-4.248 7.636,-1.182 8.416,-0.492 9.468,5.168 z"
     clip-rule="evenodd" /><path
     style="fill:#133255;fill-opacity:1;fill-rule:evenodd;stroke:#000000;stroke-opacity:0"
     inkscape:connector-curvature="0"
     id="path65"
     d="m 67.210993,265.912 c -0.008,4.301 -3.769,5.863 -12.296,5.27 -0.916,-3.652 2.09,-4.566 4.308,-5.129 2.428,-0.615 5.133,-0.141 7.988,-0.141 z"
     clip-rule="evenodd" /><path
     style="fill:#133255;fill-opacity:1;fill-rule:evenodd;stroke:#000000;stroke-opacity:0"
     inkscape:connector-curvature="0"
     id="path67"
     d="m 55.309993,263.934 c -0.87,-3.213 1.066,-4.5 3.625,-4.797 2.202,-0.256 4.511,-0.018 6.712,0.361 0.762,0.131 2.013,1.57 1.863,2.004 -0.329,0.949 -1.361,2.256 -2.195,2.324 -3.287,0.266 -6.607,0.108 -10.005,0.108 z"
     clip-rule="evenodd" /><path
     style="fill:#133255;fill-opacity:1;fill-rule:evenodd;stroke:#000000;stroke-opacity:0"
     inkscape:connector-curvature="0"
     id="path69"
     d="m 57.223993,216.143 c -0.192,-1.208 13.876,-1.917 18.467,0 4.746,1.981 -18.335,0.829 -18.467,0 z"
     clip-rule="evenodd" /><path
     style="fill:#133255;fill-opacity:1;fill-rule:evenodd;stroke:#000000;stroke-opacity:0"
     inkscape:connector-curvature="0"
     id="path71"
     d="m 54.123993,274.529 c 0,0 8.759,0.16 12.71,-1.5 1.031,2.506 2.913,8.755 -0.003,8.833 -2.017,0.055 -8.938,9.666 -11.732,8 -1.728,-1.03 -0.975,-15.333 -0.975,-15.333 z"
     clip-rule="evenodd" /><path
     style="fill:#133255;fill-opacity:1;fill-rule:evenodd;stroke:#000000;stroke-opacity:0"
     inkscape:connector-curvature="0"
     id="path73"
     d="m 76.388993,223.381 c -0.283,4.627 -2.738,3.447 -5.754,2.48 0.717,-1.181 4.343,-2.607 5.754,-2.48 z"
     clip-rule="evenodd" /><g
     inkscape:groupmode="layer"
     id="layer1"
     inkscape:label="Layer"
     transform="translate(-187.24601,0.5)" /></svg>