<?xml version="1.0" encoding="UTF-8" standalone="no"?>
<!-- Generator: Adobe Illustrator 16.0.1, SVG Export Plug-In . SVG Version: 6.00 Build 0)  -->

<svg
   xmlns:dc="http://purl.org/dc/elements/1.1/"
   xmlns:cc="http://creativecommons.org/ns#"
   xmlns:rdf="http://www.w3.org/1999/02/22-rdf-syntax-ns#"
   xmlns:svg="http://www.w3.org/2000/svg"
   xmlns="http://www.w3.org/2000/svg"
   xmlns:sodipodi="http://sodipodi.sourceforge.net/DTD/sodipodi-0.dtd"
   xmlns:inkscape="http://www.inkscape.org/namespaces/inkscape"
   version="1.1"
   x="0px"
   y="0px"
   width="171.9696"
   height="320.578"
   viewBox="0 0 171.9696 320.578"
   enable-background="new 0 0 358.716 319.578"
   xml:space="preserve"
   id="svg2"
   inkscape:version="0.48.4 r9939"
   sodipodi:docname="zebra.svg"><metadata
     id="metadata425"><rdf:RDF><cc:Work
         rdf:about=""><dc:format>image/svg+xml</dc:format><dc:type
           rdf:resource="http://purl.org/dc/dcmitype/StillImage" /><dc:title /></cc:Work></rdf:RDF></metadata><defs
     id="defs423" /><sodipodi:namedview
     pagecolor="#ffffff"
     bordercolor="#666666"
     borderopacity="1"
     objecttolerance="10"
     gridtolerance="10"
     guidetolerance="10"
     inkscape:pageopacity="0"
     inkscape:pageshadow="2"
     inkscape:window-width="1600"
     inkscape:window-height="828"
     id="namedview421"
     showgrid="false"
     inkscape:zoom="0.52217988"
     inkscape:cx="850.44848"
     inkscape:cy="224.92704"
     inkscape:window-x="524"
     inkscape:window-y="1425"
     inkscape:window-maximized="1"
     inkscape:current-layer="svg2"
     fit-margin-top="0"
     fit-margin-left="0"
     fit-margin-right="0"
     fit-margin-bottom="0" /><path
     style="fill:#1f1f1f;fill-opacity:1;fill-rule:evenodd;stroke:#000000;stroke-width:1;stroke-opacity:0"
     d="m 25.886264,0.5 c 0,0 4.7925,21.262 10.4375,22.25 2.331,0 0.8965,1.78 3.3125,0 2.416,-1.78 -2.651,-10.6305 5.125,-17.4375 7.776,-6.8070001 12.36325,3.962 12.65625,5.875 1.067,6.973 -2.73975,13.6565 -9.21875,16.5625 -2.758,1.238 -6.477,6.5445 -3.625,6.4375 2.852,-0.107 3.6915,-4.80825 5.6875,-4.65625 -0.37067,3.068453 0.9896,11.566851 2.5625,8.90625 4.57393,41.811443 -44.3270497,114.55897 -45.0312497,18.5 0,0 -4.80425,-11.406 -0.78125,-16.5 4.0229997,-5.094 6.6572497,-12.17425 1.53125,-15.40625 -7.039,-4.438 -10.07975,-13.75825 -6.59375,-19.28125 3.486,-5.52300005 13.2834997,-1.71825 14.6874997,2.84375 1.404,4.562 3.87025,12.34525 4.28125,13.78125 1.164,-0.272 4.96875,-21.875 4.96875,-21.875 z m 12.375,41.40625 c -0.20386,-0.01872 -0.41341,4e-6 -0.625,0 -1.6927,3e-5 -3.14582,0.583363 -4.34375,1.78125 -1.21092,1.184923 -1.81248,2.614609 -1.8125,4.28125 l 0,3.3125 -5.78125,0 0,-3.3125 c 2e-5,-1.666641 -0.61456,-3.096327 -1.8125,-4.28125 -1.21091,-1.197887 -2.65101,-1.78122 -4.34375,-1.78125 -1.7057,3e-5 -3.15882,0.583363 -4.34375,1.78125 -1.19788,1.197944 -1.78121,2.651068 -1.78125,4.34375 4e-5,1.67971 0.58337,3.132834 1.78125,4.34375 1.18493,1.210956 2.61461,1.812518 4.28125,1.8125 l 3.3125,0 0,5.78125 -3.3125,0 c -1.66664,1.2e-5 -3.09632,0.601574 -4.28125,1.8125 -1.19788,1.210947 -1.78121,2.645841 -1.78125,4.3125 4e-5,1.705734 0.58337,3.145836 1.78125,4.34375 1.18493,1.197917 2.63805,1.8125 4.34375,1.8125 1.69274,0 3.13284,-0.596354 4.34375,-1.78125 1.19794,-1.197914 1.81252,-2.645829 1.8125,-4.3125 l 0,-3.3125 5.78125,0 0,3.3125 c 2e-5,1.666671 0.60158,3.114586 1.8125,4.3125 1.19793,1.184896 2.65105,1.78125 4.34375,1.78125 1.69272,0 3.11459,-0.614583 4.3125,-1.8125 1.19792,-1.197914 1.8125,-2.638016 1.8125,-4.34375 0,-1.666659 -0.61458,-3.101553 -1.8125,-4.3125 -1.19791,-1.210926 -2.59634,-1.812488 -4.25,-1.8125 l -3.34375,0 0,-5.78125 3.34375,0 c 1.65366,1.8e-5 3.05209,-0.601544 4.25,-1.8125 1.19792,-1.210916 1.8125,-2.66404 1.8125,-4.34375 0,-1.692682 -0.61458,-3.145806 -1.8125,-4.34375 -1.04817,-1.048151 -2.26049,-1.650208 -3.6875,-1.78125 z m -0.625,2.875 c 0.88543,2.7e-5 1.64324,0.330756 2.28125,0.96875 0.63803,0.625026 0.93751,1.382838 0.9375,2.28125 1e-5,0.898461 -0.29947,1.674502 -0.9375,2.3125 -0.63801,0.638042 -1.41405,0.937521 -2.3125,0.9375 l -3.25,0 0,-3.25 c 1e-5,-0.898412 0.33074,-1.656224 0.96875,-2.28125 0.63803,-0.637994 1.41407,-0.968723 2.3125,-0.96875 z m -18.09375,0 c 0.89847,2.7e-5 1.67451,0.330756 2.3125,0.96875 0.63805,0.625026 0.93753,1.382838 0.9375,2.28125 l 0,3.25 -3.25,0 c -0.88539,2.1e-5 -1.6432,-0.299458 -2.28125,-0.9375 -0.63799,-0.637998 -0.96872,-1.414039 -0.96875,-2.3125 3e-5,-0.898412 0.33076,-1.656224 0.96875,-2.28125 0.62503,-0.637994 1.38284,-0.968723 2.28125,-0.96875 z m 11.9375,9.40625 0,5.78125 -5.78125,0 0,-5.78125 5.78125,0 z m 6.125,8.65625 c 0.89845,9e-6 1.67449,0.330738 2.3125,0.96875 0.63803,0.638029 0.93751,1.39584 0.9375,2.28125 1e-5,0.898443 -0.29947,1.674484 -0.9375,2.3125 -0.63801,0.638024 -1.41405,0.937503 -2.3125,0.9375 -0.8854,3e-6 -1.64322,-0.299476 -2.28125,-0.9375 -0.63801,-0.638016 -0.96874,-1.395828 -0.96875,-2.28125 l 0,-3.28125 3.25,0 z m -14.8125,0 0,3.28125 c 3e-5,0.885422 -0.29945,1.643234 -0.9375,2.28125 -0.63799,0.638024 -1.41403,0.937503 -2.3125,0.9375 -0.89841,3e-6 -1.65622,-0.299476 -2.28125,-0.9375 -0.63799,-0.638016 -0.96872,-1.414057 -0.96875,-2.3125 3e-5,-0.88541 0.33076,-1.643221 0.96875,-2.28125 0.63805,-0.638012 1.39586,-0.968741 2.28125,-0.96875 l 3.25,0 z"
     id="path17"
     inkscape:connector-curvature="0" /><path
     style="fill:#1f1f1f;fill-opacity:1;fill-rule:evenodd;stroke:#000000;stroke-opacity:0"
     inkscape:connector-curvature="0"
     id="path19"
     d="m 89.56102,102.36 c -4.266,16.135 -12.74,30.019 -21.688997,43.746 -1.097,1.68 -2.059,3.447 -3.122,5.15 -1.744,2.791 -1.566,5.564 -0.575,8.643 0.743,2.311 0.597,4.898 0.913,7.355 0.327,2.539 0.733,1.068 1.646,3.594 -2.067,-14.148 5.207,-21.02 12.269997,-31.818 8.225,-12.572 15.279,-30.382 19.474,-44.63 1.399,-4.754 9.146,-11.83 9.448,-16.694 0.302,-4.864 -3.099,-6.735 -5.898,-6.081 -2.799,0.654 -10.855,24.642 -12.467,30.735 z"
     clip-rule="evenodd" /><path
     style="fill:#1f1f1f;fill-opacity:1;fill-rule:evenodd;stroke:#000000;stroke-opacity:0"
     inkscape:connector-curvature="0"
     id="path21"
     d="m 96.58902,61.028 c -4.112,-2.75 -14.566,25.734 -20.217,38.723 -5.202997,11.958 -11.011997,23.671 -16.973997,35.274 -2.875,5.598 -3.11,10.662 -0.283,15.211 1.825,-2.848 3.503,-6.189 5.841,-8.975 6.535,-7.787 11.628997,-16.416 15.464997,-25.759 3.805,-9.271 10.945,-28.005 10.945,-28.005 0,0 9.335,-23.719 5.223,-26.469 z"
     clip-rule="evenodd" /><path
     style="fill:#1f1f1f;fill-opacity:1;fill-rule:evenodd;stroke:#000000;stroke-opacity:0"
     inkscape:connector-curvature="0"
     id="path23"
     d="m 17.512023,80.462 c -14.2845101,-0.918352 -6.69007,12.849375 -1.895,29.065 1.429,4.175 4.911,5.341 8.53,5.077 32.23723,-47.19374 12.92077,-28.441841 10.682,-33.314 -0.512,-0.573 -2.403,0.087 -3.922,0.203 z"
     clip-rule="evenodd"
     sodipodi:nodetypes="cccccc" /><path
     style="fill:#1f1f1f;fill-opacity:1;fill-rule:evenodd;stroke:#000000;stroke-opacity:0"
     inkscape:connector-curvature="0"
     id="path25"
     d="m 86.86802,57.116 c -2.391,-1.334 -8.438,4.519 -10.852,7.633 -2.666,3.441 -5.358997,6.931 -7.459997,10.721 -2.351,4.244 -4.708,8.681 -5.904,13.331 -3.162,12.292 -8.875,23.255 -16.394,33.274 -2.592,3.455 -2.277,5.773 0.822,8.533 0.372,-0.029 0.617,-0.037 0.857,-0.07 15.987,-2.219 18.903,-15.833 23.845,-27.559 3.453997,-8.196 6.500997,-16.564 9.717997,-24.861 l 5.368,-21.002 z"
     clip-rule="evenodd" /><path
     style="fill:#1f1f1f;fill-opacity:1;fill-rule:evenodd;stroke:#000000;stroke-opacity:0"
     inkscape:connector-curvature="0"
     id="path27"
     d="m 166.75102,202.504 c -8.026,-12.301 -9.104,-26.029 -8.703,-40.217 -2.572,-58.759 15.884,-70.567 13.156,-73.038 -2.728,-2.471 -11.669,-1.37 -13.962,-1.474 -2.293,-0.104 -5.703,4.425 -6.173,7.369 -2.357,14.739 -0.636,52.141 -0.583,56.031 0.171,12.637 1.402,25.246 5.067,37.262 2.26,7.406 6.852,14.143 10.798,20.947 0.663,1.143 2.107,-4.263 0.4,-6.88 z"
     clip-rule="evenodd" /><path
     style="fill:#1f1f1f;fill-opacity:1;fill-rule:evenodd;stroke:#000000;stroke-opacity:0"
     inkscape:connector-curvature="0"
     id="path29"
     d="m 165.83902,89.941 c -2.751,3.089 -5.27,5.917 -8.246,9.26 -0.176,-6.476 3.957,-10.9 8.246,-9.26 z"
     clip-rule="evenodd" /><path
     style="fill:#1f1f1f;fill-opacity:1;fill-rule:evenodd;stroke:#000000;stroke-opacity:0"
     inkscape:connector-curvature="0"
     id="path31"
     d="m 96.58902,175.898 c 7.462,1.607 21,11.156 20.595,12.928 -3.715,-1.852 -7.079,-3.795 -10.642,-5.254 -9.291,-3.809 -14.435,-3.346 -21.521,3.59 0.119,3.082 2.202,1.576 3.539,1.418 3.721,-0.439 7.438,-1.535 11.125,-1.414 3.249,0.105 6.559,1.23 9.652,2.402 3.298,1.25 14.285,5.306 17.64,6.21 1.352,0.365 -2.12,-10.7 -2.206,-13.786 -0.044,-1.551 -15.991,-29.191 -20.009,-36.117 -1.88,-3.242 -2.057,-7.443 -3.228,-11.139 -0.404,-1.273 -5.85,10.314 0.555,17.268 2.635,2.863 9.091,9.447 9.057,10.686 -3.932,-2.33 -8.039,-4.41 -11.749,-7.051 -4.591,-3.268 -5.681,-3.988 -9.931,-0.469 -6.518,5.396 -11.807,11.838 -10.361,21.271 0.165,1.074 3.587,-4.617 5.152,-8.24 2.027,-4.693 6.188,-7.695 11.088,-6.996 8.438,1.205 20.576,16.637 19.495,15.844 -3.511,-2.58 -6.738,-5.719 -10.575,-7.65 -9.341,-4.701 -17.43,-0.693 -19.877,9.373 -0.334,1.376 5.496,-4.319 12.201,-2.874 z"
     clip-rule="evenodd" /><path
     style="fill:#1f1f1f;fill-opacity:1;fill-rule:evenodd;stroke:#000000;stroke-opacity:0"
     inkscape:connector-curvature="0"
     id="path33"
     d="m 152.13902,205.6 c 3.088,0.929 -1.169,-7.422 -2.782,-10.613 -9.395,-18.588 -17.872,-37.467 -20.711,-58.387 -1.283,-9.449 -3.064,-18.832 -4.209,-28.292 -0.9,-7.446 2.183,-14.026 5.651,-20.39 1.06,-1.944 0.708,-3.319 -0.111,-3.814 -0.819,-0.495 -14.624,14.74 -12.966,27.239 1.107,8.346 1.81,16.816 3.826,24.951 1.707,6.887 4.896,13.432 7.685,20.02 5.482,12.955 11.207,25.809 16.665,38.773 0.936,2.224 3.864,9.584 6.952,10.513 z"
     clip-rule="evenodd" /><path
     style="fill:#1f1f1f;fill-opacity:1;fill-rule:evenodd;stroke:#000000;stroke-opacity:0"
     inkscape:connector-curvature="0"
     id="path35"
     d="m 92.95702,320.078 c 13.191,0 8.874,0 22.388,0 -0.087,-0.395 -1.251,-9.779 -2.026,-11.73 -1.201,-3.02 0.047,-5.832 2.23,-6.898 6.248,-3.051 -10.896,-15.361 -11.092,-14.254 -1.227,6.896 -1.268,12.523 -6.695,17.955 l -4.805,14.927 z"
     clip-rule="evenodd" /><path
     style="fill:#1f1f1f;fill-opacity:1;fill-rule:evenodd;stroke:#000000;stroke-opacity:0"
     inkscape:connector-curvature="0"
     id="path37"
     d="m 66.893023,54.531 c -3.167,-0.002 -32.014,58.333 -36.59,60.041 -4.576,1.708 4.779,6.875 9.982,3.207 7.414,-5.229 10.643,-13.12 14.067,-20.959 4.007,-9.171 9.046,-18.033 11.815,-27.559 0.001,-10e-4 3.892,-14.728 0.726,-14.73 z"
     clip-rule="evenodd" /><path
     style="fill:#1f1f1f;fill-opacity:1;fill-rule:evenodd;stroke:#000000;stroke-opacity:0"
     inkscape:connector-curvature="0"
     id="path39"
     d="m 142.78602,88.356 c -1.013,0.335 0.661,-3.162 -0.669,-3.637 -1.33,-0.475 -5.734,-0.183 -6.773,4.021 -3.469,14.033 -3.099,28.146 -0.833,42.284 1.194,7.449 2.854,14.842 3.698,22.328 1.077,9.555 9.229,31.897 10.748,31.787 1.519,-0.11 -3.41,-26.031 -4.619,-36.504 -1.138,-9.859 -2.786,-19.773 -2.623,-29.638 0.141,-8.541 2.232,-17.107 4.061,-25.532 0.52,-2.394 7.143,-5.521 4.796,-6.479 -2.347,-0.958 -6.773,1.035 -7.786,1.37 z"
     clip-rule="evenodd" /><path
     style="fill:#1f1f1f;fill-opacity:1;fill-rule:evenodd;stroke:#000000;stroke-opacity:0"
     inkscape:connector-curvature="0"
     id="path41"
     d="m 133.92102,198.613 c 0.905,-0.504 0.949,-3.32 0.704,-5 -1.966,-13.438 -6.996,-25.877 -12.565,-38.152 -5.986,-13.189 -11.738,-26.646 -12.002,-41.31 -0.181,-10.014 2.979,-19.839 10.169,-27.873 1.782,-1.992 3.603,-3.307 1,-5.438 -2.603,-2.131 -16.142,20.077 -17.527,29.455 -2.253,15.238 2.627,28.076 10.694,40.478 7.204,11.074 12.956,22.943 16.515,35.75 1.177,4.239 1.506,12.928 3.012,12.09 z"
     clip-rule="evenodd" /><path
     style="fill:#1f1f1f;fill-opacity:1;fill-rule:evenodd;stroke:#000000;stroke-opacity:0"
     inkscape:connector-curvature="0"
     id="path43"
     d="m 114.26202,78.433 c -3.035,-0.655 -11.718,11.483 -14.324,18.532 -3.298,8.918 -4.836,18.491 -8.189,27.381 -2.903,7.699 -7.058,14.965 -11.072,22.193 -3.729,6.715 -8.005,13.174 -8.922997,20.996 -0.332,2.832 0.259997,5.773 0.429997,8.666 0.338,-0.02 0.675,-0.039 1.012,-0.057 0.131,-0.459 0.368,-0.916 0.375,-1.375 0.16,-11.229 6.893,-19.01 13.805,-26.781 1.782,-2.004 3.128,-4.51 4.225,-6.984 1.779,-4.016 3.289,-8.16 4.716,-12.318 0.892,-2.598 1.878,-5.291 2.04,-7.987 0.435,-7.2 3.365,-17.261 7.31,-25.357 4.626,-9.503 10.233,-16.555 8.595,-16.909 z"
     clip-rule="evenodd" /><path
     style="fill:#1f1f1f;fill-opacity:1;fill-rule:evenodd;stroke:#000000;stroke-opacity:0"
     inkscape:connector-curvature="0"
     id="path47"
     d="m 114.13502,249.59 c 1.366,-0.039 3.217,-0.537 4.071,-1.049 0.854,-0.512 0.08,-3.501 -0.033,-5.84 -0.113,-2.339 -3.236,-1.586 -4.91,-2.234 -4.775,-1.85 -14.086,-1.551 -13.895,1.506 0.191,3.057 11.707,1.38 11.449,3.135 -0.258,1.755 -10.223,-0.537 -10.49,1.775 -0.267,2.312 1.399,1.947 1.922,2.676 l 11.886,0.031 z"
     clip-rule="evenodd" /><path
     style="fill:#1f1f1f;fill-opacity:1;fill-rule:evenodd;stroke:#000000;stroke-opacity:0"
     inkscape:connector-curvature="0"
     id="path49"
     d="m 106.94402,218.653 c -6.289,0.717 -12.208,1.681 -11.767,2.812 1.405,0.484 2.947,0.016 4.489,0.547 l -0.119,-0.1 c 6.16,3.828 17.474,1.032 17.701,-0.176 0.001,0 -4.015,-3.799 -10.304,-3.083 z"
     clip-rule="evenodd" /><path
     style="fill:#1f1f1f;fill-opacity:1;fill-rule:evenodd;stroke:#000000;stroke-opacity:0"
     inkscape:connector-curvature="0"
     id="path51"
     d="m 117.44702,232.051 c 1.446,-2.188 -7.284,-1.254 -9.811,-0.672 -3.146,0.725 -6.185,1.908 -9.492,2.965 0.257,1.492 0.559,3.248 0.913,5.311 1.236,-0.518 2.301,-0.824 3.223,-1.373 3.547,-2.109 6.989,-0.734 10.52,0.055 1.475,0.332 3.202,1.303 4.647,-0.002 1.445,-1.305 -0.56,-2.174 -2.428,-2.518 -2.089,-0.385 -4.122,-1.078 -7.185,-1.91 3.829,-0.188 8.167,0.332 9.613,-1.856 z"
     clip-rule="evenodd" /><path
     style="fill:#1f1f1f;fill-opacity:1;fill-rule:evenodd;stroke:#000000;stroke-opacity:0"
     inkscape:connector-curvature="0"
     id="path53"
     d="m 87.98202,200.748 c -0.506,2.53 1.572,4.248 5.401,3.062 7.588,-2.348 21.137,-2.524 21.374,-4.115 0.531,-3.554 -25.883,-3.41 -26.775,1.053 z"
     clip-rule="evenodd" /><path
     style="fill:#1f1f1f;fill-opacity:1;fill-rule:evenodd;stroke:#000000;stroke-opacity:0"
     inkscape:connector-curvature="0"
     id="path55"
     d="m 110.42302,193.061 c 0.679,-1.032 -6.156,-2.92 -9.213,-2.877 -4.432,0.064 -12.228,1.558 -13.23,2.514 -1.002,0.956 0.297,4.332 1.172,4.205 1.83,-0.266 3.541,-1.43 5.365,-1.627 4.158,-0.447 8.354,-0.547 12.535,-0.762 1.019,-0.053 2.692,-0.421 3.371,-1.453 z"
     clip-rule="evenodd" /><path
     style="fill:#1f1f1f;fill-opacity:1;fill-rule:evenodd;stroke:#000000;stroke-opacity:0"
     inkscape:connector-curvature="0"
     id="path57"
     d="m 97.08302,228.828 c 0.02,3.73 2.148,3.488 4.622,2.846 5.397,-1.402 15.703,-2.622 16.695,-4.217 0.992,-1.595 -3.136,-2.883 -5.63,-2.629 -2.732,0.277 -5.457,0.834 -8.121,1.512 -2.48,0.635 -4.879,1.59 -7.566,2.488 z"
     clip-rule="evenodd" /><path
     style="fill:#1f1f1f;fill-opacity:1;fill-rule:evenodd;stroke:#000000;stroke-opacity:0"
     inkscape:connector-curvature="0"
     id="path59"
     d="m 91.87102,209.475 c 1.217,1.232 2.344,3.412 3.664,3.535 6.07,0.57 12.195,0.693 18.299,0.66 1.184,-0.006 2.83,0.834 3.539,-2.186 0.48,-2.044 1.679,-0.922 -8.553,-0.195 -3.227,0.229 -6.499,0.326 -9.709,0.023 -1.278,-0.119 -6.949,-2.158 -7.24,-1.837 z"
     clip-rule="evenodd" /><path
     style="fill:#1f1f1f;fill-opacity:1;fill-rule:evenodd;stroke:#000000;stroke-opacity:0"
     inkscape:connector-curvature="0"
     id="path61"
     d="m 103.00102,208.693 c 5.913,-0.929 12.105,2.016 14.233,-2.331 0.713,-1.456 -7.399,-3.968 -10.728,-3.286 -3.66,0.752 -14.729,3.053 -12.803,4.48 1.492,1.105 6.245,1.616 9.298,1.137 z"
     clip-rule="evenodd" /><path
     style="fill:#1f1f1f;fill-opacity:1;fill-rule:evenodd;stroke:#000000;stroke-opacity:0"
     inkscape:connector-curvature="0"
     id="path63"
     d="m 103.72902,257.205 c 4.299,-0.309 8.335,-0.598 12.836,-0.92 1.475,-2.768 -0.469,-3.797 -3.368,-4.248 -7.636,-1.182 -8.416,-0.492 -9.468,5.168 z"
     clip-rule="evenodd" /><path
     style="fill:#1f1f1f;fill-opacity:1;fill-rule:evenodd;stroke:#000000;stroke-opacity:0"
     inkscape:connector-curvature="0"
     id="path65"
     d="m 104.76902,265.912 c 0.008,4.301 3.769,5.863 12.296,5.27 0.916,-3.652 -2.09,-4.566 -4.308,-5.129 -2.428,-0.615 -5.133,-0.141 -7.988,-0.141 z"
     clip-rule="evenodd" /><path
     style="fill:#1f1f1f;fill-opacity:1;fill-rule:evenodd;stroke:#000000;stroke-opacity:0"
     inkscape:connector-curvature="0"
     id="path67"
     d="m 116.67002,263.934 c 0.87,-3.213 -1.066,-4.5 -3.625,-4.797 -2.202,-0.256 -4.511,-0.018 -6.712,0.361 -0.762,0.131 -2.013,1.57 -1.863,2.004 0.329,0.949 1.361,2.256 2.195,2.324 3.287,0.266 6.607,0.108 10.005,0.108 z"
     clip-rule="evenodd" /><path
     style="fill:#1f1f1f;fill-opacity:1;fill-rule:evenodd;stroke:#000000;stroke-opacity:0"
     inkscape:connector-curvature="0"
     id="path69"
     d="m 114.75602,216.143 c 0.192,-1.208 -13.876,-1.917 -18.467,0 -4.746,1.981 18.335,0.829 18.467,0 z"
     clip-rule="evenodd" /><path
     style="fill:#1f1f1f;fill-opacity:1;fill-rule:evenodd;stroke:#000000;stroke-opacity:0"
     inkscape:connector-curvature="0"
     id="path71"
     d="m 117.85602,274.529 c 0,0 -8.759,0.16 -12.71,-1.5 -1.031,2.506 -2.913,8.755 0.003,8.833 2.017,0.055 8.938,9.666 11.732,8 1.728,-1.03 0.975,-15.333 0.975,-15.333 z"
     clip-rule="evenodd" /><path
     style="fill:#1f1f1f;fill-opacity:1;fill-rule:evenodd;stroke:#000000;stroke-opacity:0"
     inkscape:connector-curvature="0"
     id="path73"
     d="m 95.59102,223.381 c 0.283,4.627 2.738,3.447 5.754,2.48 -0.717,-1.181 -4.343,-2.607 -5.754,-2.48 z"
     clip-rule="evenodd" /><g
     inkscape:groupmode="layer"
     id="layer1"
     inkscape:label="Layer"
     transform="translate(-187.24601,0.5)" /><g
     inkscape:groupmode="layer"
     id="layer2"
     inkscape:label="Layer#1"
     transform="translate(-187.24601,0.5)" /><g
     inkscape:groupmode="layer"
     id="layer3"
     inkscape:label="Layer#2"
     transform="translate(-187.24601,0.5)" /></svg>